<svg fill="none" height="24" viewBox="0 0 24 24" width="24" xmlns="http://www.w3.org/2000/svg"><circle cx="12" cy="12" fill="#000" r="10"/><path d="m15.5148 13.2294 1.1882 1.1907c.396.3969.396 1.1906-.0001 1.5876-.7662.7679-1.7725.9923-2.1783.9923-1.5841 0-2.5739-.1987-4.95015-2.5801-2.37621-2.3814-2.57445-3.7703-2.57445-4.96103 0-.79375.19812-1.38919.99019-2.18299.39609-.39695 1.18088-.35131 1.57698.0456l1.19523 1.1451c.3961.39687.396 1.1907 0 1.58762l-.79208.7938c.19798 1.3891 1.74768 2.9731 3.16828 3.1752l.7921-.7938c.396-.3969 1.1881-.3969 1.5841 0z" fill="#fff"/></svg>