<svg enable-background="new 0 0 208.5 90.5" height="208.229141" viewBox="0 0 208.5 90.5" width="480.24018" xmlns="http://www.w3.org/2000/svg"><g fill="#231f20"><path d="m7.3 65.2h-5.5v3.2h4.9v.9h-4.9v4h-1v-9.1h6.5z"/><path d="m9.1 65.2v-1.1h1.1v1.1zm.1 8.2v-6.7h1v6.7z"/><path d="m13.4 73.4h-1v-6.7h1v1.2c.4-.7 1.1-1.3 2.3-1.3 1.6 0 2.6 1.1 2.6 2.7v4.2h-1v-3.9c0-1.2-.7-2-1.9-2s-2 .8-2 2.1z"/><path d="m20.7 68-.3-.8c.7-.3 1.5-.6 2.4-.6 1.8 0 2.9.9 2.9 2.7v4.1h-1v-1c-.5.6-1.2 1.2-2.4 1.2s-2.5-.7-2.5-2.1 1.2-2.2 2.9-2.2c.9 0 1.5.1 2.1.3v-.2c0-1.2-.7-1.8-2-1.8-.8-.1-1.4.1-2.1.4zm.2 3.4c0 .9.8 1.4 1.7 1.4 1.2 0 2.2-.8 2.2-1.8v-.7c-.5-.1-1.2-.3-2-.3-1.2 0-1.9.5-1.9 1.4z"/><path d="m28.8 73.4h-1v-6.7h1v1.2c.4-.7 1.1-1.3 2.3-1.3 1.6 0 2.6 1.1 2.6 2.7v4.2h-1v-3.9c0-1.2-.7-2-1.9-2s-2 .8-2 2.1z"/><path d="m38.8 73.5c-2 0-3.4-1.6-3.4-3.5s1.5-3.5 3.4-3.5c1.3 0 2.1.5 2.7 1.2l-.7.7c-.5-.6-1.1-1-2-1-1.4 0-2.4 1.2-2.4 2.6 0 1.5 1.1 2.6 2.5 2.6.9 0 1.5-.4 2.1-1l.6.6c-.8.8-1.6 1.3-2.8 1.3z"/><path d="m43.1 65.2v-1.1h1.1v1.1zm.1 8.2v-6.7h1v6.7z"/><path d="m46.8 68-.3-.8c.7-.3 1.5-.6 2.4-.6 1.8 0 2.9.9 2.9 2.7v4.1h-1v-1c-.5.6-1.2 1.2-2.4 1.2s-2.5-.7-2.5-2.1 1.2-2.2 2.9-2.2c.9 0 1.5.1 2.1.3v-.2c0-1.2-.7-1.8-2-1.8-.8-.1-1.5.1-2.1.4zm.1 3.4c0 .9.8 1.4 1.7 1.4 1.2 0 2.2-.8 2.2-1.8v-.7c-.5-.1-1.2-.3-2-.3-1.2 0-1.9.5-1.9 1.4z"/><path d="m54 73.4v-9.5h1v9.5z"/><path d="m64.5 68.3c2 .4 3 1.2 3 2.6 0 1.6-1.3 2.6-3.1 2.6-1.4 0-2.6-.5-3.7-1.5l.6-.8c.9.9 1.9 1.3 3.1 1.3s2-.6 2-1.6c0-.9-.5-1.3-2.4-1.7-2-.4-3-1-3-2.5s1.3-2.5 3-2.5c1.3 0 2.3.4 3.2 1.1l-.6.8c-.8-.7-1.7-1-2.6-1-1.2 0-1.9.7-1.9 1.5-.1.8.4 1.3 2.4 1.7z"/><path d="m72.3 72.7c.9 0 1.6-.4 2.1-.9l.6.6c-.7.8-1.5 1.3-2.8 1.3-1.8 0-3.4-1.4-3.4-3.5 0-2 1.4-3.5 3.2-3.5 2 0 3.1 1.6 3.1 3.6v.3h-5.3c.3 1.3 1.3 2.1 2.5 2.1zm1.9-3c-.1-1.2-.8-2.3-2.1-2.3-1.2 0-2.1 1-2.2 2.3z"/><path d="m77.9 73.4h-1v-6.7h1v1.8c.5-1.1 1.5-1.9 2.7-1.9v1.1h-.1c-1.5 0-2.7 1.1-2.7 3.1v2.6z"/><path d="m87.1 66.7h1.1l-2.9 6.8h-.9l-2.9-6.8h1.1l2.3 5.6z"/><path d="m89.7 65.2v-1.1h1.1v1.1zm.1 8.2v-6.7h1v6.7z"/><path d="m96.1 73.5c-2 0-3.4-1.6-3.4-3.5s1.5-3.5 3.4-3.5c1.3 0 2.1.5 2.7 1.2l-.7.7c-.5-.6-1.1-1-2-1-1.4 0-2.4 1.2-2.4 2.6 0 1.5 1.1 2.6 2.5 2.6.9 0 1.5-.4 2.1-1l.6.6c-.8.8-1.6 1.3-2.8 1.3z"/><path d="m103.2 72.7c.9 0 1.6-.4 2.1-.9l.6.6c-.7.8-1.5 1.3-2.8 1.3-1.8 0-3.4-1.4-3.4-3.5 0-2 1.4-3.5 3.2-3.5 2 0 3.1 1.6 3.1 3.6v.3h-5.3c.2 1.3 1.3 2.1 2.5 2.1zm1.9-3c-.1-1.2-.8-2.3-2.1-2.3-1.2 0-2.1 1-2.2 2.3z"/><path d="m110 73.5c-1 0-2-.4-2.8-1l.5-.7c.7.5 1.5.9 2.3.9s1.4-.4 1.4-1.1c0-.7-.8-.9-1.7-1.2-1.1-.3-2.2-.7-2.2-1.9 0-1.2 1-1.9 2.3-1.9.8 0 1.7.3 2.4.7l-.5.8c-.6-.4-1.3-.7-2-.7-.8 0-1.3.4-1.3 1 0 .6.8.9 1.7 1.2 1 .3 2.2.7 2.2 1.9.1 1.3-.9 2-2.3 2z"/><path d="m124.5 73.4-2.6-3.5h-2.6v3.5h-1v-9.1h3.9c2 0 3.3 1.1 3.3 2.7 0 1.5-1 2.4-2.5 2.7l2.8 3.7zm-2.4-8.2h-2.8v3.7h2.8c1.4 0 2.3-.7 2.3-1.9 0-1.1-.9-1.8-2.3-1.8z"/><path d="m130.2 72.7c.9 0 1.6-.4 2.1-.9l.6.6c-.7.8-1.5 1.3-2.8 1.3-1.8 0-3.4-1.4-3.4-3.5 0-2 1.4-3.5 3.2-3.5 2 0 3.1 1.6 3.1 3.6v.3h-5.3c.3 1.3 1.3 2.1 2.5 2.1zm2-3c-.1-1.2-.8-2.3-2.1-2.3-1.2 0-2.1 1-2.2 2.3z"/><path d="m137.9 75.5c-1.1 0-2.2-.3-3.1-.9l.5-.8c.8.6 1.6.9 2.6.9 1.5 0 2.4-.8 2.4-2.4v-.8c-.6.8-1.4 1.4-2.6 1.4-1.6 0-3.2-1.2-3.2-3.2s1.6-3.2 3.2-3.2c1.3 0 2.1.6 2.6 1.4v-1.2h1v5.6c0 2.1-1.4 3.2-3.4 3.2zm-.1-8.1c-1.3 0-2.3.9-2.3 2.3s1.1 2.3 2.3 2.3c1.3 0 2.5-.9 2.5-2.3s-1.2-2.3-2.5-2.3z"/><path d="m148.2 66.7h1v6.7h-1v-1.2c-.5.7-1.1 1.3-2.3 1.3-1.6 0-2.6-1.1-2.6-2.7v-4.2h1v3.9c0 1.2.7 2 1.9 2 1.1 0 2-.8 2-2.1z"/><path d="m151.5 73.4v-9.5h1v9.5z"/><path d="m155.1 68-.3-.8c.7-.3 1.5-.6 2.4-.6 1.8 0 2.9.9 2.9 2.7v4.1h-1v-1c-.5.6-1.2 1.2-2.4 1.2s-2.5-.7-2.5-2.1 1.2-2.2 2.9-2.2c.9 0 1.5.1 2.1.3v-.2c0-1.2-.7-1.8-2-1.8-.8-.1-1.5.1-2.1.4zm.1 3.4c0 .9.8 1.4 1.7 1.4 1.2 0 2.2-.8 2.2-1.8v-.7c-.5-.1-1.2-.3-2-.3-1.2 0-1.9.5-1.9 1.4z"/><path d="m163.5 71.5c0 .8.5 1.1 1.1 1.1.3 0 .6-.1 1-.2v.9c-.4.2-.7.3-1.2.3-1.1 0-1.9-.5-1.9-1.9v-4.1h-.9v-.9h.9v-2h1v2h2.1v.9h-2.1z"/><path d="m170.2 73.5c-2 0-3.5-1.6-3.5-3.5s1.5-3.5 3.5-3.5 3.5 1.6 3.5 3.5-1.5 3.5-3.5 3.5zm0-6.1c-1.5 0-2.5 1.2-2.5 2.6s1.1 2.6 2.5 2.6c1.5 0 2.5-1.2 2.5-2.6s-1.1-2.6-2.5-2.6z"/><path d="m176.4 73.4h-1v-6.7h1v1.8c.5-1.1 1.5-1.9 2.7-1.9v1.1h-.1c-1.5 0-2.7 1.1-2.7 3.1v2.6z"/><path d="m183.9 73.6c-.6 1.4-1.2 1.9-2.2 1.9-.6 0-1-.1-1.4-.3l.3-.8c.3.2.6.2 1.1.2.6 0 1-.3 1.4-1.3l-3.1-6.7h1.1l2.4 5.6 2.2-5.6h1.1z"/><path d="m9.3 88.4h-1.1l-1.1-2.4h-5l-1.1 2.4h-1l4.1-9.2h1zm-4.7-8-2.1 4.6h4.1z"/><path d="m15.4 81.7h1v6.7h-1v-1.2c-.5.7-1.1 1.3-2.3 1.3-1.6 0-2.6-1.1-2.6-2.7v-4.2h1v3.9c0 1.2.7 2 1.9 2 1.1 0 2-.8 2-2.1z"/><path d="m20 86.5c0 .8.5 1.1 1.1 1.1.3 0 .6-.1 1-.2v.9c-.4.2-.7.3-1.2.3-1.1 0-1.9-.5-1.9-1.9v-4.1h-1v-.9h1v-2h1v2h2.1v.9h-2.1z"/><path d="m24.8 88.4h-1v-9.5h1v3.9c.4-.7 1.1-1.3 2.3-1.3 1.6 0 2.6 1.1 2.6 2.7v4.2h-1v-3.9c0-1.2-.7-2-1.9-2s-2 .8-2 2.1z"/><path d="m34.8 88.5c-2 0-3.5-1.6-3.5-3.5s1.5-3.5 3.5-3.5 3.5 1.6 3.5 3.5-1.5 3.5-3.5 3.5zm0-6.1c-1.5 0-2.5 1.2-2.5 2.6s1.1 2.6 2.5 2.6c1.5 0 2.5-1.2 2.5-2.6s-1.1-2.6-2.5-2.6z"/><path d="m41 88.4h-1v-6.7h1v1.8c.5-1.1 1.5-1.9 2.7-1.9v1.1h-.1c-1.5 0-2.7 1.1-2.7 3.1v2.6z"/><path d="m45.3 80.2v-1.1h1.1v1.1zm0 8.2v-6.7h1v6.7z"/><path d="m49.9 86.5c0 .8.5 1.1 1.1 1.1.3 0 .6-.1 1-.2v.9c-.4.2-.7.3-1.2.3-1.1 0-1.9-.5-1.9-1.9v-4.1h-.9v-.9h.9v-2h1v2h2.1v.9h-2.1z"/><path d="m57 88.6c-.6 1.4-1.2 1.9-2.2 1.9-.6 0-1-.1-1.4-.3l.3-.8c.3.2.6.2 1.1.2.6 0 1-.3 1.4-1.3l-3.1-6.7h1.1l2.4 5.6 2.2-5.6h1.1z"/><path d="m68.3 88.5c-2 0-3.5-1.6-3.5-3.5s1.5-3.5 3.5-3.5 3.5 1.6 3.5 3.5-1.5 3.5-3.5 3.5zm0-6.1c-1.5 0-2.5 1.2-2.5 2.6s1.1 2.6 2.5 2.6c1.5 0 2.5-1.2 2.5-2.6s-1.1-2.6-2.5-2.6z"/><path d="m77 81.7v.9h-2.1v5.8h-1v-5.8h-.9v-.9h.9v-.6c0-1.5.7-2.2 2-2.2.5 0 .8.1 1.1.2v.9c-.4-.1-.6-.2-1-.2-.8 0-1.2.5-1.2 1.4v.5z"/><path d="m86.5 88.5c-2.8 0-4.6-2.2-4.6-4.7s1.9-4.7 4.7-4.7 4.6 2.2 4.6 4.7c-.1 2.5-2 4.7-4.7 4.7zm0-8.4c-2.1 0-3.6 1.7-3.6 3.7s1.5 3.8 3.6 3.8 3.6-1.7 3.6-3.7-1.5-3.8-3.6-3.8z"/><path d="m94.1 88.4h-1v-6.7h1v1.2c.4-.7 1.1-1.3 2.3-1.3 1.6 0 2.6 1.1 2.6 2.7v4.2h-1v-3.9c0-1.2-.7-2-1.9-2s-2 .8-2 2.1z"/><path d="m102.3 86.5c0 .8.5 1.1 1.1 1.1.3 0 .6-.1 1-.2v.9c-.4.2-.7.3-1.2.3-1.1 0-1.9-.5-1.9-1.9v-4.1h-.9v-.9h.9v-2h1v2h2.1v.9h-2.1z"/><path d="m106.6 83-.3-.8c.7-.3 1.5-.6 2.4-.6 1.8 0 2.9.9 2.9 2.7v4.1h-1v-1c-.5.6-1.2 1.2-2.4 1.2s-2.5-.7-2.5-2.1 1.2-2.2 2.9-2.2c.9 0 1.5.1 2.1.3v-.2c0-1.2-.7-1.8-2-1.8-.9-.1-1.5.1-2.1.4zm.1 3.4c0 .9.8 1.4 1.7 1.4 1.2 0 2.2-.8 2.2-1.8v-.7c-.5-.1-1.2-.3-2-.3-1.2 0-1.9.5-1.9 1.4z"/><path d="m114.6 88.4h-1v-6.7h1v1.8c.5-1.1 1.5-1.9 2.7-1.9v1.1h-.1c-1.5 0-2.7 1.1-2.7 3.1v2.6z"/><path d="m118.8 80.2v-1.1h1.1v1.1zm.1 8.2v-6.7h1v6.7z"/><path d="m125.2 88.5c-2 0-3.5-1.6-3.5-3.5s1.5-3.5 3.5-3.5 3.5 1.6 3.5 3.5-1.4 3.5-3.5 3.5zm0-6.1c-1.5 0-2.5 1.2-2.5 2.6s1.1 2.6 2.5 2.6c1.5 0 2.5-1.2 2.5-2.6s-1-2.6-2.5-2.6z"/></g><path d="m1 1h43.2v14.7h-25.9v6.6h24.1v13.4h-24.1v16.9h-17.3z" fill="#147f99"/><path d="m43.7 44.8 9.2-11c5.6 4.3 12 6 18 6 3.1 0 4.4-.8 4.4-2.2v-.1c0-1.5-1.6-2.3-7.1-3.4-11.6-2.4-21.7-5.7-21.7-16.6v-.1c0-9.8 7.6-17.4 21.9-17.4 9.9 0 17.3 2.4 23.3 7.1l-8.4 11.6c-4.9-3.5-10.7-5.1-15.5-5.1-2.6 0-3.8.9-3.8 2.1v.1c0 1.4 1.4 2.3 6.8 3.3 13.2 2.4 22 6.3 22 16.6v.3c0 10.8-8.9 17.5-22.8 17.5-10.3 0-19.8-3-26.3-8.7z" fill="#147f99"/><path d="m95.8 1h25.2c9.1 0 15 2.3 18.6 5.9 3.1 3.1 4.7 6.9 4.7 12.2v.1c0 7.5-3.9 12.7-10.2 15.8l12 17.5h-19.7l-9.7-14.7h-.1-3.5v14.7h-17.3zm24.7 24.5c4.1 0 6.6-1.8 6.6-5v-.1c0-3.3-2.6-4.9-6.6-4.9h-7.5v10.1h7.5z" fill="#147f99"/><path d="m162.7.6h17.1l21.7 51.9h-18.7l-2.7-6.9h-18l-2.7 6.9h-18.4zm13.1 32.8-4.7-12.5-4.7 12.5z" fill="#147f99"/></svg>