<svg viewBox="0 0 256 256" xmlns="http://www.w3.org/2000/svg"><path d="m128.00049 24a104.0281 104.0281 0 0 0 -91.189 154.041l-8.54687 29.915a15.99944 15.99944 0 0 0 19.77938 19.78035l29.916-8.54688a104.00728 104.00728 0 1 0 50.04049-195.18947zm24.12451 168c-.0293.02344-.084 0-.126 0a87.99949 87.99949 0 0 1 -87.999-88.124 36.01385 36.01385 0 0 1 36-35.876 14.92643 14.92643 0 0 1 12.93066 7.503l11.69092 20.46094a16.01674 16.01674 0 0 1 -.17187 16.16992l-7.11084 11.85156a40.03607 40.03607 0 0 0 14.67627 14.67676l11.85107-7.11133a16.01883 16.01883 0 0 1 16.17041-.17285l20.45947 11.69141a14.9238 14.9238 0 0 1 7.50391 12.93059 36.01427 36.01427 0 0 1 -35.875 36z"/><path d="m136.4502 154.6592a7.99584 7.99584 0 0 1 -7.397.43652 56.03179 56.03179 0 0 1 -28.14892-28.14843 7.99972 7.99972 0 0 1 .43652-7.39746l9.38867-15.64844-11.36619-19.8916a19.99027 19.99027 0 0 0 -19.36328 19.88769 72.00036 72.00036 0 0 0 72 72.10252h.10254a19.99027 19.99027 0 0 0 19.88769-19.36328l-19.8916-11.36621z"/></svg>